<svg width="40" height="40" viewBox="0 0 40 40" fill="none" xmlns="http://www.w3.org/2000/svg">
    <g id="Group 1000005020">
        <path id="Subtract" fill-rule="evenodd" clip-rule="evenodd"
            d="M1.62915 5.93305C0 8.72579 0 12.4839 0 20C0 27.5161 0 31.2742 1.62915 34.0669C2.66858 35.8488 4.15123 37.3314 5.93305 38.3708C8.61494 39.9353 12.187 39.9974 19.1226 39.9999C18.7073 39.3605 18.4102 37.6645 18.1772 34.9017C17.8135 30.5889 17.5478 30.3458 16.825 29.6843C16.7818 29.6448 16.737 29.6038 16.6904 29.5603C14.3226 28.1286 11.4822 29.2775 7.4079 32.9559C4.29148 35.7695 2.76027 34.395 1.97917 31.3417C9.71871 26.8888 13.4118 20.82 14.7621 18.6012C14.8144 18.5152 14.8633 18.4349 14.9087 18.3608C16.1252 16.3746 16.5246 14.9863 15.7731 15.128C12.7769 15.6928 10.3607 16.8018 10.3607 16.8018C10.3607 16.8018 7.53358 13.5895 7.75705 13.2171C7.75705 13.2171 11.0555 13.2688 13.1211 12.8988C14.5402 12.6447 16.455 12.2049 16.6904 11.9564C16.8899 11.7457 17.2339 9.05473 17.4702 7.20689C17.5126 6.87461 17.5516 6.56959 17.5857 6.31116C18.4787 6.02641 20.5197 5.50781 20.5197 5.50781C20.5197 5.50781 19.5417 9.85954 19.5417 10.6361C19.5417 11.2574 20.3771 11.178 20.869 11.0615C23.024 10.5511 24.3218 10.0683 25.2654 9.71726C26.2983 9.33303 26.9065 9.10675 27.7497 9.17518C29.363 9.30613 30.6436 11.8181 30.6436 11.8181C30.6436 11.8181 21.6761 12.8988 21.6761 13.9618C21.6761 14.9007 34.5555 23.1112 39.9758 24.9004C40 23.4661 40 21.8465 40 20C40 12.4839 40 8.72579 38.3708 5.93305C37.3314 4.15123 35.8488 2.66858 34.0669 1.62915C31.2742 0 27.5161 0 20 0C12.4839 0 8.72579 0 5.93305 1.62915C4.15123 2.66858 2.66858 4.15123 1.62915 5.93305ZM39.9051 27.2096C38.0344 28.7915 35.1126 30.1035 31.3764 28.6644C28.0115 27.3683 22.4282 20.8876 21.2068 19.2924C21.0115 19.0373 20.8245 18.7855 20.6444 18.5429C19.6982 17.2683 18.9425 16.2505 18.1772 16.3761C17.679 16.4579 17.0625 18.1785 16.3533 20.1583C15.7658 21.7983 15.1146 23.616 14.4141 24.8274C13.5243 26.366 12.9814 27.7421 13.7042 28.0185C14.4271 28.2948 15.7347 27.4967 16.3391 26.5026C16.7109 25.8913 16.786 25.3274 16.9364 24.1991C17.0213 23.5624 17.1301 22.746 17.3297 21.6401C17.8829 18.5743 19.396 19.6067 20.1045 21.087C20.4493 21.8075 20.6407 22.3855 20.813 22.9057C21.0233 23.5407 21.2051 24.0895 21.6024 24.706C22.2605 25.7272 24.1432 25.1599 24.7573 24.9749C24.8177 24.9567 24.8659 24.9422 24.8994 24.9332C25.2732 24.8335 25.7548 25.1678 25.6577 25.6724C25.5715 26.1211 26.8492 27.0598 27.1591 27.2428C26.8559 27.2428 26.5617 27.2376 26.2751 27.2325C24.7186 27.2049 23.389 27.1814 22.0869 28.0185C21.2441 28.5603 21.0597 31.6493 20.8857 34.5635C20.7414 36.9809 20.6043 39.278 20.1045 39.9008C20.076 39.9363 20.0479 39.9694 20.0202 40C27.5229 40 31.2767 39.9985 34.0669 38.3708C35.8488 37.3314 37.3314 35.8488 38.3708 34.0669C39.3684 32.3568 39.7552 30.2848 39.9051 27.2096Z"
            fill="#C84938" />
    </g>
</svg>